<svg width="350" height="322" viewBox="0 0 350 322" fill="none" xmlns="http://www.w3.org/2000/svg">
<g clip-path="url(#clip0_86_236)">
<path d="M55.0013 313.926C55.0013 314.697 53.4346 315.369 51.0946 315.74C49.9131 315.927 48.9826 316.866 48.7973 318.058C48.4304 320.419 47.7638 322 46.9996 322C46.2354 322 45.5689 320.419 45.2019 318.058C45.0166 316.866 44.086 315.927 42.9044 315.74C40.5626 315.369 38.9921 314.697 38.9921 313.926C38.9921 313.15 40.5613 312.477 42.9014 312.109C44.0845 311.923 45.0167 310.983 45.202 309.79C45.569 307.426 46.2354 305.845 46.9996 305.845C47.7638 305.845 48.4303 307.426 48.7973 309.79C48.9826 310.983 49.9147 311.923 51.0976 312.109C53.436 312.477 55.0013 313.15 55.0013 313.926V313.926Z" fill="#FFC017"/>
<path d="M312.67 21.4648C312.67 22.3189 310.935 23.0638 308.343 23.474C307.035 23.681 306.004 24.721 305.799 26.0414C305.392 28.6567 304.654 30.4077 303.808 30.4077C302.961 30.4077 302.223 28.6568 301.817 26.0416C301.611 24.721 300.581 23.681 299.272 23.474C296.678 23.0639 294.939 22.3189 294.939 21.4648C294.939 20.6058 296.677 19.86 299.269 19.4527C300.579 19.2468 301.612 18.2061 301.817 16.8841C302.223 14.266 302.961 12.5153 303.808 12.5153C304.654 12.5153 305.392 14.266 305.799 16.8842C306.004 18.2061 307.036 19.2468 308.346 19.4528C310.936 19.8601 312.67 20.6059 312.67 21.4648V21.4648Z" fill="#FFC017"/>
<path d="M339.13 82.1536C340.021 81.2545 340.021 79.7967 339.13 78.8976C338.239 77.9984 336.795 77.9985 335.904 78.8976C335.013 79.7967 335.013 81.2545 335.904 82.1536C336.795 83.0527 338.239 83.0527 339.13 82.1536Z" fill="#FFC017"/>
<path d="M335.576 269.835C335.944 268.708 335.336 267.493 334.219 267.121C333.102 266.75 331.897 267.363 331.529 268.49C331.161 269.618 331.769 270.833 332.886 271.204C334.003 271.576 335.208 270.963 335.576 269.835Z" fill="#FFC017"/>
<path d="M86.9837 61.3433C87.0372 59.6011 85.681 58.1449 83.9545 58.0908C82.2279 58.0368 80.7848 59.4054 80.7313 61.1476C80.6777 62.8899 82.0339 64.3461 83.7605 64.4001C85.4871 64.4542 86.9301 63.0856 86.9837 61.3433Z" fill="#FFC017"/>
<path d="M247.597 40.0277C248.857 40.0277 249.878 38.9969 249.878 37.7253C249.878 36.4538 248.857 35.423 247.597 35.423C246.336 35.423 245.315 36.4538 245.315 37.7253C245.315 38.9969 246.336 40.0277 247.597 40.0277Z" fill="#FFC017"/>
<path d="M61.2972 6.0809C62.8979 5.42577 63.6693 3.58523 63.0201 1.96994C62.3708 0.354639 60.5469 -0.423733 58.9461 0.231393C57.3454 0.886518 56.574 2.72706 57.2233 4.34236C57.8725 5.95765 59.6964 6.73602 61.2972 6.0809Z" fill="#FFC017"/>
<path d="M13.7571 281.252C14.0852 279.863 13.2351 278.468 11.8582 278.137C10.4814 277.806 9.09929 278.664 8.77119 280.053C8.4431 281.443 9.29327 282.837 10.6701 283.169C12.0469 283.5 13.429 282.642 13.7571 281.252Z" fill="#FFC017"/>
<path d="M283.454 318.53C283.918 317.912 283.798 317.031 283.185 316.563C282.573 316.095 281.7 316.216 281.236 316.834C280.772 317.452 280.892 318.332 281.504 318.801C282.117 319.269 282.99 319.148 283.454 318.53Z" fill="#FFC017"/>
<path d="M122.519 12.2422C123.364 11.9652 123.826 11.0495 123.552 10.1969C123.277 9.34431 122.37 8.87774 121.525 9.15477C120.68 9.4318 120.218 10.3475 120.492 11.2001C120.767 12.0527 121.674 12.5192 122.519 12.2422Z" fill="#FFC017"/>
<path d="M27.1623 78.2638C28.0185 78.0248 28.5206 77.1306 28.2838 76.2666C28.0469 75.4026 27.1608 74.896 26.3046 75.1349C25.4484 75.3739 24.9463 76.2681 25.1831 77.1321C25.42 77.9961 26.3061 78.5028 27.1623 78.2638Z" fill="#FFC017"/>
<path d="M45.0127 134.189C44.9929 134.923 44.3869 135.502 43.6593 135.482C42.9316 135.462 42.3579 134.851 42.3777 134.117C42.3975 133.382 43.0035 132.803 43.7311 132.823C44.4588 132.843 45.0326 133.455 45.0127 134.189Z" fill="#FFC017"/>
<path d="M4.29737 151.055C5.47106 150.15 5.69586 148.457 4.79948 147.273C3.90311 146.088 2.22499 145.861 1.0513 146.766C-0.12239 147.67 -0.347193 149.364 0.549183 150.548C1.44556 151.733 3.12368 151.959 4.29737 151.055Z" fill="#FFC017"/>
<g filter="url(#filter0_d_86_236)">
<path d="M155.096 212.245C155.096 212.245 152.989 227.449 141.082 240.373C132.01 250.221 117.365 250.889 118.46 260.17H192.606L155.096 212.245Z" fill="white"/>
<path d="M192.606 260.17H118.462C117.365 250.888 132.009 250.219 141.081 240.373C146.705 234.263 150.149 227.648 152.209 222.366C153.736 218.457 154.506 215.28 154.851 213.586C155.03 212.723 155.097 212.244 155.097 212.244L165.858 225.994L168.885 229.862L190.985 258.1L192.606 260.17Z" fill="white"/>
<g opacity="0.35">
<path d="M192.606 260.17H140.297C144.301 258.05 147.891 254.565 152.321 251.715C159.258 247.252 159.89 235.61 158.751 231.659L192.606 260.17Z" fill="#371A45"/>
</g>
<path d="M192.607 261.977H118.46C117.553 261.977 116.789 261.293 116.681 260.384C115.897 253.739 121.548 250.756 127.53 247.598C131.591 245.455 136.193 243.025 139.77 239.143C151.124 226.819 153.302 212.14 153.322 211.993C153.423 211.277 153.937 210.69 154.629 210.501C155.322 210.314 156.058 210.558 156.502 211.125L194.012 259.049C194.438 259.593 194.518 260.334 194.219 260.958C193.919 261.581 193.293 261.977 192.607 261.977ZM120.271 258.362H188.909L156.051 216.381C154.632 221.876 150.999 232.264 142.394 241.604C138.398 245.941 133.507 248.523 129.19 250.801C124.022 253.53 120.793 255.385 120.271 258.362Z" fill="#371A45"/>
<path d="M328.649 175.018C327.154 178.104 323.656 180.079 318.283 180.111C311.458 180.147 311.31 181.087 311.355 181.294C311.364 181.322 311.373 181.335 311.373 181.335C311.373 181.335 312.542 183.174 314.123 186.202C314.127 186.211 314.132 186.224 314.136 186.233C314.203 186.355 314.27 186.482 314.338 186.613C314.342 186.627 314.347 186.636 314.355 186.649C319.102 195.872 327.069 215.104 318.995 227.955C309.103 243.69 263.753 251.426 247.977 255.597C235.035 259.022 211.051 260.531 190.985 258.1C186.578 257.567 182.364 256.844 178.495 255.908C165.898 252.867 159.795 237.034 156.956 225.23C155.738 220.16 155.124 215.836 154.851 213.586C154.726 212.528 154.676 211.927 154.676 211.927C154.676 211.927 188.034 183.278 234.771 180.251C242.429 179.754 250.44 179.948 258.724 181.064C272.947 182.984 282.01 186.708 282.01 186.708C284.223 180.269 276.807 170.07 281.379 160.861C286.753 150.034 319.42 147.227 327.897 164.905C329.742 168.755 329.966 172.316 328.649 175.018Z" fill="white"/>
<path d="M314.136 186.234C314.203 186.356 314.27 186.482 314.338 186.613C314.253 186.487 314.19 186.365 314.136 186.234Z" fill="white"/>
<g opacity="0.35">
<path d="M328.649 175.018C327.154 178.104 323.656 180.079 318.283 180.111C311.458 180.147 311.31 181.087 311.355 181.294C308.386 176.871 304.41 172.23 304.41 172.23C304.41 172.23 307.244 171.624 313.934 175.402C317.665 177.508 325.295 178.985 328.649 175.018Z" fill="#371A45"/>
</g>
<g opacity="0.35">
<path d="M318.995 227.955C290.872 254.402 218.279 264.59 178.497 255.912C167.757 253.316 161.741 241.431 158.44 230.669C157.397 227.265 155.197 224.367 152.255 222.397L152.209 222.366C153.883 217.51 155.09 214.888 154.676 211.927C154.676 211.927 188.034 183.278 234.771 180.251C223.034 218.91 192.314 241.873 158.657 226.112C162.204 235.14 167.869 243.739 176.807 245.895C198.306 251.087 230.513 249.758 246.289 245.583C251.452 244.218 251.895 206.577 257.247 214.476C283.17 252.754 314.682 226.491 318.265 220.377C321.337 215.136 321.001 208.113 320.714 202.732C322.985 211.182 323.612 220.612 318.995 227.955Z" fill="#371A45"/>
</g>
<path d="M162.351 239.312C164.131 242.252 166.008 245.097 168.267 247.522C169.383 248.741 170.592 249.847 171.867 250.823C173.146 251.797 174.531 252.583 175.964 253.2C177.417 253.82 178.858 254.162 180.574 254.486L183.053 254.985L185.559 255.381C188.895 255.938 192.273 256.293 195.651 256.634C209.179 257.836 222.939 257.71 236.413 255.945C239.77 255.475 243.127 254.938 246.372 254.124L247.597 253.831L248.865 253.505L251.392 252.886L256.431 251.709C263.139 250.168 269.819 248.627 276.432 246.861C283.039 245.095 289.593 243.141 295.944 240.731C299.115 239.523 302.234 238.196 305.223 236.666C308.205 235.134 311.073 233.394 313.558 231.306C314.205 230.805 314.744 230.221 315.33 229.673C315.613 229.392 315.852 229.083 316.116 228.79C316.38 228.497 316.639 228.201 316.846 227.878C317.065 227.562 317.296 227.255 317.511 226.933L318.092 225.901C318.3 225.565 318.462 225.204 318.619 224.84C318.776 224.477 318.957 224.124 319.097 223.752C320.227 220.778 320.714 217.526 320.645 214.235C320.618 210.943 320.07 207.623 319.281 204.361C318.47 201.099 317.389 197.884 316.107 194.745C314.832 191.603 313.36 188.529 311.739 185.549C311.336 184.803 310.916 184.068 310.49 183.342L310.168 182.802L310.007 182.537L309.927 182.407L309.889 182.348C309.957 182.444 309.788 182.238 309.65 181.834C309.555 181.518 309.556 181.289 309.576 181.021C309.602 180.812 309.666 180.581 309.745 180.403C309.811 180.265 309.891 180.129 309.981 180.003C310.085 179.856 310.126 179.83 310.205 179.744C310.276 179.673 310.351 179.605 310.427 179.542C310.491 179.491 310.538 179.461 310.596 179.422C310.699 179.354 310.839 179.263 310.918 179.229C311.29 179.042 311.58 178.954 311.863 178.87C312.935 178.589 313.834 178.511 314.754 178.429C315.66 178.365 316.553 178.325 317.435 178.314C318.365 178.313 319.08 178.252 319.879 178.223C320.636 178.107 321.415 178.04 322.124 177.818C323.566 177.441 324.88 176.798 325.835 175.86C326.795 174.928 327.393 173.713 327.593 172.339C327.8 170.965 327.611 169.464 327.174 168C327.046 167.636 326.956 167.264 326.803 166.904L326.341 165.824C326.179 165.469 325.973 165.135 325.794 164.788L325.516 164.271L325.19 163.785C324.367 162.455 323.285 161.302 322.123 160.245C319.766 158.144 316.852 156.657 313.776 155.64C310.679 154.659 307.411 154.123 304.123 154.026C303.301 153.976 302.477 154.017 301.655 154.013C300.834 154.064 300.01 154.075 299.193 154.172C297.554 154.308 295.93 154.58 294.337 154.941C292.741 155.293 291.187 155.788 289.706 156.401C288.229 157.015 286.817 157.761 285.605 158.682L284.743 159.405C284.494 159.67 284.224 159.922 283.986 160.19C283.783 160.475 283.531 160.738 283.358 161.032C283.197 161.342 282.999 161.578 282.854 161.948C282.209 163.314 281.846 164.797 281.709 166.339C281.441 169.441 282.139 172.704 282.932 176.051C283.324 177.736 283.752 179.454 284.018 181.304C284.268 183.134 284.412 185.187 283.701 187.302C283.385 188.242 282.374 188.745 281.444 188.426L281.371 188.4L281.332 188.384C280.128 187.907 278.78 187.452 277.477 187.036C276.162 186.613 274.828 186.234 273.492 185.866C270.814 185.144 268.105 184.522 265.378 183.992C262.651 183.465 259.904 183.014 257.145 182.708L253.005 182.251L248.849 181.979C243.302 181.711 237.738 181.802 232.199 182.262C226.662 182.75 221.158 183.618 215.722 184.806C204.857 187.203 194.24 190.874 184.22 195.797C174.192 200.725 164.671 206.522 155.062 212.385L155.042 212.397C154.758 212.57 154.388 212.478 154.216 212.192C154.075 211.955 154.112 211.661 154.288 211.467C156.243 209.313 158.396 207.426 160.634 205.634C161.747 204.732 162.901 203.887 164.054 203.039C165.228 202.222 166.396 201.395 167.601 200.626C172.388 197.492 177.447 194.8 182.626 192.394C192.982 187.586 203.79 183.702 214.961 181.273C220.541 180.053 226.197 179.162 231.893 178.661C237.591 178.187 243.319 178.092 249.032 178.369L253.314 178.649L257.579 179.12C260.422 179.436 263.245 179.899 266.054 180.442C268.862 180.988 271.653 181.628 274.421 182.374C275.803 182.755 277.183 183.148 278.553 183.588C279.936 184.032 281.265 184.474 282.684 185.036L280.316 186.118C280.734 184.924 280.701 183.398 280.472 181.816C280.246 180.23 279.841 178.576 279.446 176.885C278.658 173.51 277.821 169.883 278.14 166.03C278.305 164.119 278.775 162.181 279.612 160.411C279.787 159.973 280.104 159.504 280.359 159.055C280.632 158.607 280.971 158.231 281.281 157.82C281.614 157.442 281.972 157.099 282.321 156.741C282.689 156.419 283.067 156.113 283.442 155.801C284.98 154.633 286.644 153.766 288.341 153.058C290.04 152.356 291.779 151.806 293.541 151.416C295.301 151.017 297.079 150.722 298.866 150.572C299.759 150.469 300.656 150.452 301.55 150.4C302.447 150.401 303.343 150.361 304.239 150.413C307.824 150.521 311.406 151.099 314.871 152.199C318.317 153.336 321.673 155.026 324.486 157.529C325.874 158.784 327.175 160.184 328.183 161.798C329.211 163.398 330.062 165.091 330.602 166.951C331.152 168.798 331.44 170.816 331.136 172.88C330.85 174.934 329.855 176.993 328.325 178.459C326.804 179.944 324.903 180.823 323.034 181.314C322.093 181.597 321.15 181.688 320.209 181.822C319.29 181.867 318.29 181.929 317.499 181.928C316.663 181.938 315.837 181.976 315.028 182.033C314.238 182.098 313.418 182.194 312.825 182.352C312.695 182.389 312.575 182.435 312.561 182.441C312.54 182.447 312.596 182.427 312.606 182.414L312.641 182.383C312.678 182.357 312.714 182.326 312.746 182.292C312.789 182.247 312.781 182.249 312.861 182.152C312.922 182.072 312.973 181.982 313.011 181.89C313.071 181.762 313.124 181.585 313.135 181.428C313.159 181.213 313.149 181.041 313.075 180.775C312.947 180.425 312.816 180.262 312.91 180.404L312.959 180.482L313.049 180.628L313.225 180.918L313.568 181.493C314.018 182.26 314.457 183.028 314.877 183.805C316.564 186.908 318.089 190.092 319.421 193.371C320.758 196.647 321.896 200.02 322.758 203.488C323.596 206.961 324.194 210.533 324.227 214.187C324.301 217.827 323.77 221.563 322.431 225.076C322.264 225.514 322.054 225.936 321.867 226.367C321.678 226.798 321.484 227.225 321.239 227.629L320.543 228.858C320.281 229.256 319.995 229.645 319.719 230.037C319.452 230.441 319.145 230.797 318.832 231.148C318.519 231.497 318.222 231.87 317.894 232.198C317.223 232.834 316.578 233.515 315.861 234.075C313.056 236.429 309.983 238.273 306.844 239.89C303.699 241.5 300.471 242.87 297.21 244.113C290.684 246.588 284.029 248.569 277.346 250.356C270.661 252.141 263.931 253.693 257.229 255.233L252.219 256.403L249.735 257.012L248.503 257.328L247.219 257.636C243.788 258.495 240.341 259.044 236.89 259.528C229.985 260.434 223.058 260.923 216.123 261.095C209.188 261.268 202.238 261.141 195.307 260.498C191.84 260.181 188.379 259.757 184.938 259.132L182.36 258.654L179.795 258.067C178.138 257.729 176.233 257.186 174.554 256.364C171.128 254.757 168.359 252.136 166.204 249.257C164.035 246.359 162.455 243.137 161.271 239.826C161.158 239.511 161.32 239.165 161.631 239.051C161.904 238.952 162.201 239.064 162.346 239.305L162.351 239.312Z" fill="#371A45"/>
<path d="M171.614 282.667L234.557 263.085C237.47 262.343 239.518 259.709 239.538 256.678L132.655 255.872L132.655 283.657L160.836 283.959C164.469 283.998 168.091 283.563 171.614 282.667Z" fill="#333333"/>
<g opacity="0.35">
<path d="M239.273 258.495C238.63 260.721 236.868 262.498 234.559 263.083L171.613 282.667C168.093 283.562 164.47 283.998 160.834 283.957L132.653 283.655L134.431 279.777L162.612 280.26C166.244 280.325 169.867 279.914 173.399 279.039L236.468 259.983C237.539 259.721 238.494 259.201 239.273 258.495Z" fill="#371A45"/>
</g>
<path d="M161.285 285.521C161.13 285.521 160.975 285.52 160.82 285.519L131.109 285.2L131.109 254.3L241.094 255.13L241.084 256.688C241.059 260.415 238.55 263.657 234.976 264.587L171.992 284.18C168.492 285.07 164.893 285.521 161.285 285.521ZM134.201 282.113L160.853 282.399C164.346 282.441 167.818 282.021 171.198 281.164L234.179 261.572C235.889 261.137 237.21 259.848 237.74 258.225L134.2 257.443L134.201 282.113Z" fill="#371A45"/>
<path d="M169.847 276.039L239.201 256.756C239.248 256.745 239.24 256.677 239.193 256.677L132.655 255.332V277.124H160.376C163.563 277.124 166.74 276.76 169.847 276.039Z" fill="#333333"/>
<path d="M156.96 271.421L201.405 261.686C202.124 261.554 202.028 260.486 201.298 260.486L147.673 260.083V272.798L156.96 271.421Z" fill="#AFB2B1"/>
<path d="M146.127 274.604V258.511L201.309 258.926C202.416 258.926 203.334 259.773 203.435 260.896C203.535 262.02 202.781 263.019 201.682 263.221L157.185 272.965L146.127 274.604ZM149.219 261.655V270.992L156.684 269.886L192.766 261.982L149.219 261.655ZM201.077 260.162C201.061 260.164 201.044 260.168 201.028 260.172L201.077 260.162Z" fill="#371A45"/>
<path d="M160.376 278.684H131.109V253.752L240.581 255.134L240.769 256.543C240.854 257.332 240.355 258.061 239.601 258.263L170.193 277.56C166.978 278.306 163.675 278.684 160.376 278.684ZM134.2 275.564H160.376C163.431 275.564 166.49 275.215 169.468 274.526L228.539 258.102L134.2 256.912V275.564ZM239.164 258.236C239.17 258.236 239.176 258.237 239.183 258.237L239.164 258.236Z" fill="#371A45"/>
<path d="M282.774 185.076C284.006 185.579 285.075 186.139 286.158 186.773C287.235 187.394 288.267 188.085 289.277 188.804C291.296 190.247 293.155 191.91 294.904 193.671C296.663 195.42 298.246 197.351 299.664 199.38L300.691 200.925C301.009 201.457 301.312 201.999 301.608 202.54L302.054 203.348L302.446 204.188C302.711 204.743 302.955 205.308 303.2 205.867C303.258 205.998 303.199 206.151 303.069 206.209C302.961 206.257 302.837 206.224 302.766 206.135L302.755 206.122C301.238 204.235 299.739 202.402 298.029 200.764C296.358 199.101 294.609 197.538 292.759 196.107C290.923 194.66 289.007 193.332 287.077 192.036C286.583 191.729 286.104 191.401 285.619 191.082L284.151 190.148L281.243 188.345L281.162 188.294C280.318 187.771 280.055 186.656 280.574 185.805C281.039 185.041 281.977 184.749 282.774 185.076Z" fill="#371A45"/>
<path d="M303.926 171.709C304.994 172.19 305.911 172.832 306.785 173.516C307.666 174.197 308.442 174.977 309.215 175.767C309.98 176.565 310.711 177.399 311.395 178.285C312.063 179.183 312.705 180.118 313.214 181.163C313.592 181.937 313.276 182.874 312.508 183.255C311.808 183.603 310.974 183.369 310.546 182.737L310.534 182.719C309.399 181.047 308.249 179.282 307.087 177.492C306.514 176.589 305.904 175.708 305.378 174.747C304.843 173.792 304.328 172.814 303.926 171.709Z" fill="#371A45"/>
<path d="M221.908 152.182C229.085 145.813 262.673 143.275 278.217 153.161C292.493 162.24 296.16 191.873 287.487 189.942C267.996 185.604 252.561 183.648 223.776 188.715C205.206 191.32 214.732 158.55 221.908 152.182Z" fill="white"/>
<g opacity="0.35">
<path d="M287.487 189.948C267.994 185.61 252.563 183.653 223.777 188.719C213.845 190.115 211.951 181.385 213.433 171.99C214.499 176.721 217.566 179.808 223.777 178.936C232.372 177.422 244.484 158.339 244.484 158.339C244.484 158.339 244.998 174.046 251.085 177.158C258.724 181.064 276.95 177.815 287.487 180.16C289.596 180.63 290.971 179.234 291.647 176.726C292.964 184.557 291.643 190.874 287.487 189.948Z" fill="#371A45"/>
</g>
<path d="M288.255 191.844C287.881 191.844 287.495 191.801 287.101 191.713C266.186 187.058 251.422 185.689 224.084 190.502C224.064 190.505 224.044 190.508 224.023 190.511C217.107 191.481 213.995 188.024 212.601 184.954C208.367 175.631 214.837 156.055 220.725 150.83C228.818 143.648 263.26 141.518 279.172 151.637C290.922 159.11 296.347 179.916 292.963 188.229C292.017 190.554 290.304 191.844 288.255 191.844ZM254.004 183.91C265.729 183.91 275.952 185.53 287.873 188.183C288.297 188.278 289.007 188.436 289.649 186.856C292.167 180.669 287.925 161.478 277.262 154.696C262.198 145.115 229.434 147.916 223.091 153.545C218.55 157.575 212.151 175.287 215.857 183.448C217.164 186.325 219.666 187.465 223.5 186.935C235.438 184.835 245.15 183.91 254.004 183.91Z" fill="#371A45"/>
<path d="M266.72 161.393C263.137 166.126 263.506 180.881 266.772 181.862C270.039 182.843 281.576 183.829 284.105 181.756C286.634 179.682 287.756 171.696 285.329 167.509C282.879 163.283 269.354 157.912 266.72 161.393Z" fill="white"/>
<g opacity="0.35">
<path d="M286.48 176.179C286.112 178.651 285.253 180.815 284.106 181.755C281.576 183.83 270.041 182.844 266.772 181.864C264.398 181.15 263.556 173.161 264.644 167.029C265.11 170.761 266.364 173.816 267.994 173.689C270.564 173.491 271.899 168.032 271.899 168.032C271.899 168.032 272.548 174.806 275.11 177.359C278.307 180.549 284.357 178.046 285.973 176.721C286.148 176.577 286.318 176.396 286.48 176.179Z" fill="#371A45"/>
</g>
<path d="M277.071 184.216C272.819 184.216 268.208 183.595 266.419 183.058C265.307 182.724 264.443 181.625 263.852 179.791C262.37 175.194 262.511 164.897 265.737 160.635C266.644 159.437 268.294 158.905 270.633 159.049C275.766 159.368 284.217 163.118 286.396 166.879C289.167 171.659 287.88 180.268 284.885 182.724C283.533 183.832 280.413 184.216 277.071 184.216ZM269.923 161.523C268.819 161.523 268.008 161.748 267.703 162.15C265.243 165.4 264.765 174.557 266.204 179.019C266.604 180.257 267.013 180.632 267.125 180.666C270.504 181.681 281.396 182.369 283.325 180.787C285.273 179.19 286.456 171.926 284.261 168.139C282.68 165.411 275.21 161.834 270.481 161.541C270.288 161.528 270.102 161.523 269.923 161.523Z" fill="#371A45"/>
<path d="M272.384 166.269C272.276 169.314 272.202 172.349 272.421 175.274C272.539 176.726 272.747 178.172 273.131 179.412C273.325 180.027 273.578 180.58 273.868 180.962C274.169 181.341 274.437 181.545 274.879 181.675L275.105 181.742C275.755 181.934 276.128 182.621 275.938 183.276C275.766 183.871 275.19 184.236 274.599 184.155C274.335 184.12 274.064 184.094 273.8 184.026C273.542 183.93 273.264 183.858 273.026 183.715C272.54 183.446 272.099 183.089 271.785 182.686C271.124 181.886 270.786 181.008 270.556 180.172C270.104 178.489 270.117 176.871 270.191 175.293C270.282 173.716 270.512 172.176 270.817 170.66C271.134 169.145 271.527 167.656 272.038 166.198C272.071 166.104 272.172 166.055 272.265 166.088C272.341 166.115 272.387 166.187 272.384 166.264L272.384 166.269Z" fill="#371A45"/>
<path d="M247.532 152.297C246.827 155.347 245.993 158.402 245.605 161.321C245.548 161.687 245.53 162.041 245.494 162.398L245.392 163.582L245.195 165.951L244.853 170.66C244.755 172.22 244.698 173.773 244.695 175.291C244.694 176.808 244.78 178.304 245.02 179.667C245.272 181.023 245.722 182.214 246.403 182.896C247.059 183.589 248.124 183.921 249.452 183.989L249.517 183.992C250.505 184.043 251.265 184.892 251.215 185.888C251.166 186.844 250.386 187.588 249.452 187.603C248.531 187.617 247.556 187.557 246.564 187.257C245.577 186.968 244.576 186.427 243.779 185.672C242.976 184.922 242.395 184.011 241.994 183.111C241.597 182.203 241.353 181.299 241.174 180.415C240.827 178.648 240.774 176.95 240.77 175.286C240.765 173.622 240.885 171.995 241.011 170.38C241.137 168.766 241.314 167.169 241.501 165.58L241.787 163.2L241.935 162.01C242.008 161.579 242.068 161.141 242.163 160.725C242.501 159.041 243.037 157.468 243.66 155.947C244.294 154.427 245.004 152.974 245.893 151.569C246.162 151.143 246.722 151.018 247.144 151.29C247.476 151.504 247.623 151.9 247.539 152.266L247.532 152.297Z" fill="#371A45"/>
<path d="M292.816 242.971C286.865 249.103 279.727 246.6 279.727 246.6C279.727 246.6 282.53 237.662 282.745 226.618C282.803 223.64 282.673 220.504 282.248 217.35C279.61 197.815 264.626 186.523 264.626 186.523C264.626 186.523 272.66 178.434 283.067 187.363C290.801 194.001 295.745 211.267 296.381 225.095C296.757 233.147 295.664 240.034 292.816 242.971Z" fill="white"/>
<g opacity="0.35">
<path d="M292.816 242.971C286.865 249.103 279.727 246.6 279.727 246.6C279.727 246.6 282.53 237.662 282.745 226.618C284.039 229.754 285.759 232.89 287.25 232.289C289.359 231.435 288.947 224.051 289.135 221.774C289.193 221.06 291.468 224.923 292.046 231.15C292.4 234.928 294.898 229.022 296.381 225.095C296.757 233.147 295.664 240.034 292.816 242.971Z" fill="#371A45"/>
</g>
<path d="M283.324 248.92C280.944 248.92 279.289 248.361 279.14 248.309L277.495 247.733L278.019 246.057C278.063 245.916 282.393 231.83 280.472 217.592C277.974 199.081 263.695 188.077 263.551 187.968L261.897 186.716L263.359 185.241C263.451 185.149 272.695 176.093 284.228 185.988C292.548 193.127 297.543 211.055 298.176 225.075C298.418 230.411 298.208 239.996 294.096 244.234C290.393 248.049 286.295 248.92 283.324 248.92ZM281.973 245.233C284.137 245.484 288.05 245.297 291.536 241.704C293.813 239.358 294.958 233.203 294.598 225.24C294.014 212.324 289.368 195.144 281.907 188.742C275.406 183.165 270.063 185.031 267.504 186.589C271.703 190.356 281.843 200.957 284.022 217.105C285.648 229.153 283.139 240.759 281.973 245.233Z" fill="#371A45"/>
<g opacity="0.2">
<path d="M30.197 186.234C30.197 186.234 120.481 103.627 120.931 103.691C64.2067 174.765 156.348 219.694 156.348 219.694L163.284 278.557L30.197 186.234Z" fill="#FCE85B"/>
</g>
<path d="M110.961 187.657C116.944 197.271 125.372 205.419 135.766 211.091C137.886 212.247 140.08 213.3 142.353 214.24C143.458 214.701 144.589 215.131 145.736 215.544C149.2 216.768 152.697 217.693 156.205 218.332C159.227 218.891 162.259 219.232 165.273 219.375C168.912 219.55 172.534 219.424 176.104 219.022C177.405 218.871 178.699 218.686 179.985 218.468C203.513 214.419 224.301 198.188 232.987 174.195C245.79 138.855 227.477 100.069 192.096 87.5615C185.28 85.1574 178.322 83.8914 171.447 83.6915C170.644 83.6604 169.836 83.6527 169.03 83.6618C166.872 83.6715 164.727 83.7831 162.599 83.9959C157.678 84.4896 152.848 85.5187 148.196 87.0371C143.544 88.55 139.059 90.5587 134.837 93.017C133.494 93.7979 132.177 94.6226 130.885 95.4969C128.951 96.808 127.08 98.2118 125.278 99.7249C116.289 107.232 109.107 117.135 104.845 128.91C97.4793 149.239 100.412 170.704 110.961 187.657Z" fill="white"/>
<path d="M168.463 219.651C167.392 219.651 166.325 219.626 165.263 219.575C162.196 219.429 159.136 219.077 156.169 218.529C152.628 217.883 149.096 216.942 145.671 215.732C144.409 215.278 143.299 214.851 142.278 214.425C140.046 213.502 137.823 212.439 135.672 211.267C125.516 205.724 116.914 197.597 110.794 187.763C99.7553 170.024 97.5194 148.548 104.659 128.841C108.785 117.443 115.872 107.321 125.152 99.5714C126.907 98.0976 128.799 96.671 130.775 95.3316C132.044 94.4723 133.378 93.6353 134.738 92.8443C138.973 90.3784 143.481 88.3608 148.135 86.8473C152.834 85.3138 157.694 84.2876 162.58 83.7976C164.705 83.585 166.874 83.4719 169.029 83.4625C169.876 83.4524 170.692 83.4628 171.454 83.4923C178.471 83.6962 185.438 85.0021 192.161 87.3732C209.393 93.4647 223.14 105.906 230.871 122.405C238.541 138.773 239.358 157.19 233.173 174.264C224.778 197.454 204.41 214.467 180.018 218.664C178.73 218.883 177.42 219.07 176.126 219.22C173.578 219.507 171.012 219.651 168.463 219.651ZM111.129 187.551C117.212 197.327 125.764 205.406 135.86 210.916C137.999 212.081 140.209 213.138 142.428 214.056C143.444 214.48 144.548 214.905 145.803 215.356C149.207 216.559 152.719 217.494 156.24 218.136C159.19 218.681 162.232 219.031 165.282 219.176C168.851 219.347 172.484 219.229 176.081 218.824C177.368 218.674 178.671 218.488 179.952 218.271C204.204 214.098 224.455 197.183 232.802 174.127C238.95 157.154 238.138 138.846 230.514 122.575C222.828 106.174 209.162 93.8057 192.031 87.7498C185.346 85.3921 178.419 84.0938 171.441 83.8909C170.683 83.8613 169.874 83.8525 169.032 83.861C166.889 83.8708 164.732 83.9829 162.619 84.1943C157.761 84.6816 152.929 85.702 148.256 87.227C143.628 88.7319 139.147 90.738 134.936 93.1899C133.583 93.9766 132.257 94.8084 130.995 95.6625C129.031 96.9943 127.15 98.4126 125.405 99.8782C116.178 107.584 109.133 117.646 105.031 128.978C97.9327 148.568 100.155 169.917 111.129 187.551Z" fill="#371A45"/>
<g opacity="0.35">
<path d="M232.987 174.194C224.303 198.189 203.512 214.421 179.983 218.466C178.697 218.686 177.404 218.871 176.105 219.021C172.534 219.424 168.913 219.548 165.274 219.376C162.26 219.231 159.227 218.891 156.207 218.333C152.697 217.695 149.201 216.769 145.735 215.546C144.59 215.129 143.459 214.702 142.353 214.243C140.079 213.301 137.887 212.244 135.766 211.09C125.372 205.418 116.942 197.273 110.96 187.655C107.673 182.375 105.123 176.651 103.396 170.663C109.316 179.707 117.444 187.368 127.36 192.78C129.479 193.94 131.673 194.991 133.946 195.933C135.049 196.393 136.18 196.821 137.328 197.236C140.795 198.459 144.29 199.385 147.796 200.025C150.82 200.581 153.849 200.922 156.864 201.068C160.503 201.24 164.127 201.114 167.694 200.713C168.998 200.561 170.291 200.376 171.577 200.156C195.105 196.111 215.893 179.881 224.581 155.884C229.652 141.887 229.837 127.35 226.019 114.122C237.26 131.274 240.545 153.335 232.987 174.194Z" fill="#371A45"/>
</g>
<path d="M168.462 220.987C167.371 220.987 166.283 220.961 165.2 220.91C162.075 220.761 158.956 220.402 155.931 219.843C152.324 219.186 148.724 218.227 145.233 216.993C143.943 216.53 142.814 216.094 141.772 215.66C139.5 214.72 137.235 213.637 135.043 212.442C124.686 206.79 115.913 198.502 109.673 188.474C98.4144 170.382 96.1337 148.48 103.416 128.382C107.622 116.762 114.847 106.443 124.308 98.5418C126.095 97.0412 128.023 95.5869 130.037 94.2222C131.331 93.3456 132.69 92.4927 134.077 91.6865C138.392 89.174 142.986 87.1179 147.729 85.5755C152.516 84.013 157.469 82.9673 162.449 82.4676C164.615 82.251 166.827 82.1358 169.023 82.1261C169.882 82.1154 170.721 82.1267 171.505 82.1568C178.645 82.3646 185.747 83.6952 192.598 86.1118C210.168 92.3227 224.185 105.009 232.068 121.833C239.891 138.527 240.724 157.31 234.417 174.723C225.859 198.362 205.1 215.704 180.24 219.981C178.927 220.205 177.595 220.395 176.277 220.547C173.677 220.84 171.06 220.987 168.462 220.987ZM112.25 186.84C118.212 196.422 126.595 204.34 136.49 209.74C138.587 210.883 140.754 211.919 142.93 212.819C143.929 213.236 145.013 213.654 146.247 214.097C149.579 215.274 153.023 216.192 156.475 216.821C159.371 217.356 162.354 217.699 165.344 217.841C168.845 218.01 172.407 217.893 175.935 217.495C177.195 217.35 178.474 217.167 179.732 216.953C203.514 212.861 223.374 196.275 231.558 173.669C237.584 157.034 236.788 139.091 229.317 123.146C221.784 107.071 208.387 94.9476 191.593 89.0109C185.038 86.6989 178.245 85.4256 171.403 85.2266C170.655 85.198 169.866 85.1873 169.047 85.1974C166.936 85.2068 164.821 85.3168 162.75 85.5243C157.986 86.0021 153.247 87.0027 148.664 88.4985C144.123 89.9747 139.728 91.9424 135.598 94.3474C134.27 95.1192 132.97 95.9349 131.733 96.7721C129.806 98.0784 127.962 99.469 126.252 100.905C117.203 108.462 110.296 118.327 106.274 129.437C99.3181 148.636 101.496 169.559 112.25 186.84Z" fill="#371A45"/>
<path d="M168.462 221.433C167.363 221.433 166.269 221.407 165.179 221.354C162.035 221.205 158.896 220.844 155.851 220.281C152.223 219.62 148.6 218.655 145.087 217.414C143.788 216.947 142.652 216.509 141.603 216.071C139.319 215.126 137.039 214.036 134.833 212.834C124.409 207.146 115.58 198.804 109.299 188.711C97.9675 170.501 95.6721 148.457 103.001 128.23C107.234 116.535 114.505 106.15 124.026 98.1988C125.824 96.6893 127.765 95.2258 129.79 93.8526C131.093 92.9702 132.461 92.1119 133.857 91.3005C138.199 88.7724 142.821 86.7035 147.593 85.1514C152.41 83.5795 157.394 82.5271 162.405 82.0246C164.585 81.8061 166.811 81.6907 169.021 81.6806C169.885 81.67 170.73 81.6812 171.522 81.712C178.703 81.9207 185.85 83.2596 192.744 85.6913C210.426 91.9422 224.533 104.71 232.467 121.643C240.341 138.445 241.18 157.35 234.831 174.876C226.219 198.664 205.33 216.116 180.315 220.421C178.993 220.645 177.653 220.836 176.327 220.99C173.71 221.285 171.077 221.433 168.462 221.433ZM112.624 186.603C118.546 196.12 126.871 203.985 136.7 209.349C138.783 210.484 140.936 211.513 143.098 212.407C144.091 212.822 145.168 213.236 146.395 213.678C149.703 214.846 153.124 215.758 156.554 216.383C159.431 216.914 162.394 217.255 165.365 217.396C168.842 217.564 172.381 217.448 175.886 217.053C177.137 216.908 178.408 216.726 179.659 216.514C203.284 212.449 223.013 195.972 231.143 173.516C237.129 156.993 236.338 139.173 228.918 123.337C221.436 107.369 208.128 95.3282 191.447 89.4315C184.935 87.1347 178.187 85.8696 171.391 85.6718C170.644 85.6432 169.865 85.6334 169.052 85.6429C166.952 85.6523 164.851 85.7614 162.793 85.9674C158.061 86.4421 153.353 87.4363 148.8 88.9223C144.288 90.3891 139.922 92.344 135.818 94.7332C134.499 95.5001 133.208 96.3106 131.979 97.1421C130.065 98.4398 128.233 99.8213 126.534 101.248C117.545 108.755 110.684 118.554 106.689 129.59C99.7798 148.659 101.943 169.439 112.624 186.603H112.624Z" fill="#371A45"/>
<path d="M121.961 201.088C163.393 226.293 216.482 203.084 216.619 155.035C216.713 122.345 184.656 97.2391 153.134 99.3795C130.192 100.937 108.408 112.452 100.852 148.569C100.852 148.569 99.9821 165.054 105.059 175.672C110.135 186.289 116.877 195.748 116.877 195.748L121.961 201.088Z" fill="#371A45"/>
<path d="M216.617 155.035C216.481 203.083 163.391 226.291 121.961 201.09L120.931 200.006C165.227 205.02 207.437 176.105 208.483 127.52C213.616 135.582 216.644 144.947 216.617 155.035Z" fill="#220F2D"/>
<path d="M157.879 220.333C157.306 220.333 156.735 220.326 156.16 220.313L155.856 220.282C152.223 219.62 148.6 218.655 145.087 217.414C143.788 216.947 142.652 216.509 141.603 216.071C139.319 215.126 137.039 214.036 134.833 212.834C124.409 207.146 115.58 198.804 109.299 188.711C97.9675 170.501 95.6721 148.457 103.001 128.229C107.234 116.535 114.505 106.15 124.026 98.1987L124.182 98.0689L124.36 97.9739C132.34 93.7133 141.74 91.1895 152.3 90.4726C171.31 89.1822 191.266 96.5567 205.685 110.2C218.674 122.491 225.801 138.407 225.753 155.014C225.699 173.085 219.228 188.974 207.039 200.963C194.471 213.324 176.634 220.333 157.879 220.333ZM156.403 216.355C174.688 216.745 192.131 210.093 204.298 198.126C215.715 186.896 221.776 171.985 221.826 155.002C221.871 139.506 215.185 124.622 202.999 113.091C189.36 100.185 170.504 93.2081 152.564 94.4257C142.637 95.1 133.826 97.44 126.374 101.382C117.466 108.868 110.661 118.618 106.689 129.59C99.7798 148.659 101.943 169.439 112.624 186.603C118.546 196.12 126.871 203.985 136.7 209.349C138.783 210.484 140.936 211.513 143.098 212.407C144.091 212.822 145.168 213.236 146.395 213.678C149.655 214.829 153.024 215.731 156.403 216.355Z" fill="#371A45"/>
<path d="M158.096 213.383C145.433 213.383 132.534 209.833 120.947 202.785L120.725 202.65L115.283 196.905C115.004 196.513 108.383 187.183 103.29 176.533C98.0551 165.583 98.855 149.158 98.8915 148.463L98.931 148.16C105.562 116.466 123.754 99.3889 153.002 97.4029C169.971 96.249 187.788 102.833 200.659 115.011C212.259 125.988 218.625 140.204 218.582 155.041C218.521 176.536 208.039 194.798 189.825 205.144C180.135 210.648 169.206 213.383 158.096 213.383ZM123.196 199.525C143.696 211.894 168.466 212.73 187.899 201.691C204.846 192.065 214.598 175.058 214.656 155.029C214.695 141.303 208.77 128.118 197.973 117.902C185.882 106.462 169.167 100.277 153.266 101.356C126.033 103.206 109.056 119.174 102.806 148.82C102.74 150.457 102.28 165.301 106.827 174.81C111.475 184.532 117.629 193.394 118.393 194.481L123.196 199.525Z" fill="#371A45"/>
<path d="M246.616 150.142C248.195 163.427 241.639 175.548 231.97 177.214C222.301 178.879 213.182 169.458 211.603 156.173C211.592 156.09 211.584 156.001 211.576 155.917C210.108 142.732 216.647 130.754 226.249 129.101C233.718 127.814 240.859 133.144 244.45 141.758C245.506 144.295 246.256 147.12 246.616 150.142Z" fill="white"/>
<g opacity="0.35">
<path d="M246.616 150.141C248.195 163.427 241.639 175.548 231.97 177.214C222.301 178.879 213.182 169.458 211.603 156.173C211.592 156.09 211.584 156.001 211.577 155.917C212.802 157.097 214.616 158.155 216.803 157.316C220.635 155.846 226.665 146.089 226.665 146.089C226.665 146.089 234.366 144.16 244.45 141.758C245.506 144.295 246.256 147.12 246.616 150.141Z" fill="#371A45"/>
</g>
<path d="M229.721 179.387C226.28 179.387 222.906 178.2 219.836 175.888C214.345 171.752 210.634 164.652 209.654 156.407C207.954 142.111 215.252 128.985 225.92 127.148C230.24 126.404 234.551 127.536 238.385 130.425C243.876 134.56 247.587 141.66 248.567 149.906C250.266 164.202 242.969 177.328 232.3 179.165C231.439 179.314 230.577 179.387 229.721 179.387ZM228.474 130.891C227.843 130.891 227.212 130.945 226.581 131.053C217.943 132.541 212.099 143.703 213.553 155.936C214.393 163.003 217.62 169.274 222.184 172.713C225.136 174.936 228.406 175.817 231.64 175.26C240.278 173.772 246.123 162.61 244.668 150.377C243.828 143.31 240.601 137.038 236.036 133.6C233.66 131.811 231.078 130.891 228.474 130.891Z" fill="#371A45"/>
<path d="M235.463 173.713C243.43 173.525 249.688 164.751 249.442 154.116C249.195 143.481 242.537 135.013 234.57 135.201C226.603 135.389 220.345 144.163 220.591 154.797C220.838 165.432 227.496 173.901 235.463 173.713Z" fill="white"/>
<path d="M235.23 173.935C233.893 173.935 232.547 173.687 231.217 173.189C223.438 170.276 218.798 159.512 220.873 149.195C222.03 143.443 225.058 138.817 229.18 136.503C232.247 134.782 235.578 134.513 238.816 135.725C246.594 138.638 251.235 149.401 249.16 159.719C248.003 165.471 244.975 170.097 240.853 172.411C239.046 173.425 237.147 173.935 235.23 173.935ZM234.804 135.394C232.955 135.394 231.123 135.886 229.38 136.865C225.362 139.12 222.408 143.644 221.275 149.277C219.239 159.403 223.763 169.956 231.36 172.801C234.481 173.97 237.695 173.709 240.653 172.049C244.671 169.794 247.625 165.27 248.758 159.637C250.794 149.511 246.27 138.958 238.673 136.113C237.391 135.633 236.093 135.394 234.804 135.394Z" fill="#371A45"/>
<g opacity="0.35">
<path d="M222.445 164.243C221.141 160.842 220.771 157.065 221.205 153.421C224.837 160.923 232.38 163.227 238.664 158.478C242.726 155.41 245.324 150.1 245.993 144.46C246.225 144.932 246.438 145.432 246.637 145.947C249.954 154.611 247.229 165.73 240.548 170.782C233.866 175.834 225.762 172.902 222.445 164.243Z" fill="#371A45"/>
</g>
<path d="M235.647 175.701C233.092 175.701 230.574 174.813 228.267 173.083C223.819 169.745 220.683 163.569 219.877 156.559C218.494 144.518 224.008 133.896 232.432 132.377C235.656 131.796 238.894 132.639 241.796 134.817C246.245 138.153 249.381 144.33 250.186 151.34C251.57 163.381 246.055 174.003 237.632 175.523C236.97 175.642 236.307 175.701 235.647 175.701ZM234.39 136.164C233.967 136.164 233.544 136.202 233.123 136.277C226.95 137.391 222.671 146.47 223.778 156.103C224.461 162.047 227.014 167.206 230.609 169.902C232.621 171.412 234.811 172.006 236.941 171.622C243.113 170.509 247.393 161.43 246.286 151.797C245.603 145.852 243.049 140.693 239.454 137.997C237.84 136.786 236.111 136.164 234.39 136.164Z" fill="#371A45"/>
<g opacity="0.5">
<path d="M170.673 111.494C170.673 111.494 140.994 115.41 125.655 133.603L125.607 133.66C122.381 137.492 120.25 142.118 119.4 147.035C118.276 153.537 118.457 158.175 118.774 162.251C119.744 174.647 122.528 180.258 122.528 180.258C114.934 174.307 110.362 167.21 109.451 156.894C109.364 155.876 109.312 154.824 109.292 153.742C109.287 153.493 109.288 153.245 109.292 152.996C109.286 152.994 109.288 152.989 109.294 152.981C109.41 150.785 109.671 147.905 110.239 144.679C111.943 134.948 116.402 122.066 127.949 115.286C149.54 102.609 171.597 110.113 170.673 111.494Z" fill="white"/>
</g>
<g opacity="0.5">
<path d="M195.971 151.003C200.696 149.249 202.907 143.389 200.911 137.913C198.914 132.437 193.466 129.419 188.742 131.173C184.018 132.927 181.806 138.788 183.803 144.264C185.799 149.739 191.247 152.757 195.971 151.003Z" fill="white"/>
</g>
<g opacity="0.5">
<path d="M203.109 163.72C204.984 162.817 205.67 160.321 204.64 158.146C203.611 155.971 201.257 154.941 199.382 155.844C197.507 156.748 196.821 159.243 197.851 161.418C198.88 163.593 201.235 164.624 203.109 163.72Z" fill="white"/>
</g>
<path d="M154.966 283.933L62.4207 283.284C58.953 283.256 55.8728 281.047 54.7063 277.753L53.0483 273.057L25.962 196.425C23.7327 190.12 28.3909 183.5 35.0227 183.545L124.779 184.129C125.279 184.133 125.77 184.173 126.253 184.254C129.649 184.81 132.538 187.189 133.72 190.531L162.796 272.811C164.722 278.253 160.699 283.973 154.966 283.933Z" fill="#333333"/>
<g opacity="0.35">
<path d="M58.1962 282.071L150.637 282.719C156.37 282.76 160.393 277.039 158.467 271.597L129.391 189.317C128.798 187.641 127.776 186.208 126.476 185.125C130.483 200.836 136.7 233.369 125.53 252.09C112.043 274.685 67.8739 273.976 53.0482 273.057L54.7062 277.753C55.3909 279.686 56.7375 281.241 58.432 282.205C58.3533 282.16 58.2732 282.118 58.1962 282.071Z" fill="#666666"/>
</g>
<g opacity="0.4">
<path d="M29.5646 196.263L60.1226 282.724C57.9253 281.865 56.1475 280.079 55.3245 277.753L26.5802 196.425C24.351 190.12 29.0092 183.5 35.641 183.545L125.397 184.129C128.997 184.149 132.245 186.213 133.851 189.39C133.579 189.346 133.304 189.321 133.02 189.321L34.8979 188.68C30.9948 188.656 28.2502 192.555 29.5646 196.263Z" fill="white"/>
</g>
<path d="M155.025 285.74C155.002 285.74 154.978 285.74 154.955 285.74L62.4098 285.089C58.2058 285.06 54.4326 282.355 53.0204 278.36L24.2737 197.033C23.0125 193.465 23.5355 189.647 25.7083 186.558C27.8666 183.49 31.2346 181.735 34.9583 181.735C34.9836 181.735 35.0093 181.735 35.035 181.736L124.79 182.321C129.543 182.352 133.809 185.407 135.405 189.925L164.484 272.201C165.584 275.314 165.109 278.78 163.213 281.474C161.33 284.149 158.274 285.74 155.025 285.74ZM154.98 282.125C154.996 282.125 155.012 282.125 155.027 282.125C157.147 282.125 159.063 281.127 160.292 279.381C161.53 277.622 161.828 275.448 161.11 273.416L132.031 191.139C130.938 188.048 128.019 185.957 124.767 185.935L35.012 185.35C34.9945 185.35 34.9767 185.35 34.9595 185.35C32.411 185.35 30.1065 186.551 28.6297 188.651C27.1426 190.765 26.7847 193.377 27.6477 195.819L56.3944 277.145C57.3029 279.716 59.7303 281.456 62.4346 281.474L154.98 282.125Z" fill="#371A45"/>
<path d="M100.002 232.124L96.7556 235.522C96.4329 235.857 96.2144 236.274 96.1139 236.716C96.0321 237.067 96.0282 237.438 96.1016 237.801L96.2465 238.514L97.0345 242.425C97.4555 244.493 95.3399 246.15 93.4537 245.227L89.2474 243.164C88.4998 242.798 87.6231 242.825 86.8982 243.24L82.8282 245.564C81.006 246.607 78.792 245.088 79.0806 242.995L79.7269 238.321C79.8393 237.488 79.5416 236.654 78.9294 236.089L75.4788 232.904C73.9996 231.537 74.6205 229.101 76.4874 228.57C76.5697 228.547 76.656 228.527 76.7428 228.511L81.3482 227.685C82.1648 227.537 82.8606 226.993 83.2042 226.231L84.7606 222.784L85.142 221.937C86.0107 220.011 88.6867 219.927 89.6737 221.791L91.8743 225.956C92.2652 226.694 92.9925 227.192 93.819 227.288L98.4655 227.819C100.546 228.059 101.452 230.6 100.002 232.124Z" fill="#FFDA22"/>
<g opacity="0.6">
<path d="M100.002 232.124L96.7557 235.522C96.4329 235.857 96.2145 236.274 96.1139 236.716C95.9581 236.624 95.8047 236.524 95.6513 236.424C95.3321 236.212 95.0035 235.983 94.8332 235.64C94.623 235.218 94.6975 234.693 94.9319 234.288C95.1693 233.879 95.5426 233.573 95.9374 233.317C96.5704 232.909 97.3597 232.495 97.4583 231.739C97.5317 231.182 97.1586 230.643 96.6762 230.36C96.1937 230.078 95.6202 230.007 95.0658 229.969C94.2803 229.911 93.4884 229.908 92.7 229.955C92.1557 229.987 91.5968 230.043 91.0682 229.912C89.8996 229.618 89.1344 228.481 88.7253 227.343C88.3124 226.202 88.1433 224.971 87.5932 223.893C87.469 223.648 87.3165 223.404 87.0972 223.242C86.8828 223.09 86.6198 223.02 86.3622 222.964C85.8256 222.852 85.2936 222.796 84.7606 222.784L85.142 221.937C86.0107 220.011 88.6867 219.927 89.6737 221.791L91.8744 225.956C92.2652 226.694 92.9925 227.192 93.819 227.288L98.4656 227.819C100.546 228.059 101.452 230.6 100.002 232.124Z" fill="white"/>
</g>
<path d="M97.0345 242.425C97.4555 244.493 95.3399 246.15 93.4537 245.227L89.2474 243.164C88.4998 242.798 87.6231 242.825 86.8982 243.24L82.8282 245.564C81.006 246.607 78.792 245.088 79.0806 242.995L79.7269 238.321C79.8393 237.488 79.5416 236.654 78.9294 236.089L75.4788 232.904C73.9996 231.537 74.6205 229.101 76.4874 228.57C76.5185 228.662 76.5536 228.758 76.6047 228.866C76.9361 229.587 77.5269 230.203 78.1718 230.648C79.4147 231.51 80.92 232.039 81.8884 233.2C83.2533 234.839 83.1597 237.199 83.2873 239.335C83.3124 239.709 83.3609 240.123 83.6392 240.374C83.9051 240.612 84.3033 240.629 84.6505 240.564C85.8163 240.34 86.7808 239.358 87.9664 239.322C89.5886 239.272 93.0704 242.911 94.3559 241.886C95.3802 241.069 93.7568 238.302 96.2465 238.514L97.0345 242.425Z" fill="#FFAA00"/>
<path d="M81.5819 247.461C80.7835 247.461 79.9882 247.222 79.2949 246.746C78.0032 245.86 77.3343 244.341 77.5499 242.78L78.1946 238.106C78.239 237.783 78.1233 237.459 77.8851 237.239L74.4356 234.054C73.2834 232.99 72.8383 231.388 73.274 229.875C73.7094 228.362 74.9353 227.25 76.4732 226.975L81.0767 226.149C81.395 226.092 81.6649 225.881 81.7987 225.584L83.7351 221.289C84.3816 219.855 85.753 218.933 87.3138 218.883C88.884 218.829 90.3013 219.666 91.0366 221.057V221.057L93.2372 225.221C93.3891 225.508 93.6714 225.702 93.9924 225.738L98.6388 226.269C100.191 226.447 101.483 227.478 102.012 228.961C102.542 230.444 102.198 232.07 101.114 233.205L97.87 236.604C97.646 236.838 97.5509 237.169 97.6155 237.488L98.5506 242.112C98.8628 243.656 98.2906 245.215 97.0566 246.181C95.8228 247.147 94.1838 247.319 92.7785 246.63L88.5733 244.567C88.2831 244.424 87.9416 244.435 87.6605 244.596L83.592 246.923C82.9624 247.283 82.2709 247.461 81.5819 247.461ZM87.4425 222.001C87.4316 222.001 87.421 222.001 87.4113 222.002C87.2281 222.007 86.7773 222.076 86.5496 222.581L84.6129 226.876C84.0576 228.108 82.938 228.984 81.6178 229.221L77.014 230.046C76.4717 230.144 76.2944 230.568 76.2431 230.745C76.1921 230.923 76.1169 231.377 76.523 231.752L79.9725 234.937C80.962 235.851 81.4418 237.196 81.257 238.537L80.6123 243.21C80.5365 243.76 80.8811 244.062 81.0326 244.165C81.1845 244.269 81.5882 244.481 82.0677 244.208L86.1362 241.881C87.3036 241.215 88.72 241.17 89.9254 241.761L94.1307 243.824C94.6268 244.068 95.016 243.829 95.1612 243.716C95.3062 243.603 95.6311 243.28 95.5211 242.736L94.5857 238.112C94.3176 236.787 94.7128 235.413 95.6428 234.439L98.887 231.04C99.269 230.64 99.1657 230.192 99.1035 230.018C99.0413 229.844 98.8378 229.432 98.2909 229.369L93.6445 228.838C92.312 228.686 91.1398 227.883 90.5088 226.689L88.3081 222.525V222.525C88.0627 222.061 87.6417 222.001 87.4425 222.001Z" fill="#371A45"/>
<path d="M296.225 198.405C295.726 198.405 295.255 198.098 295.068 197.599C294.826 196.955 295.147 196.234 295.786 195.99C296.327 195.782 309.169 190.941 318.655 194.123C319.303 194.34 319.654 195.047 319.438 195.701C319.223 196.355 318.522 196.708 317.875 196.492C309.232 193.593 296.788 198.276 296.663 198.324C296.519 198.379 296.37 198.405 296.225 198.405Z" fill="#371A45"/>
<path d="M249.809 206.544C249.809 206.544 279.112 238.134 259.929 254.471C243.802 268.207 226.529 249.824 226.529 249.824C226.529 249.824 224.585 255.894 218.663 258.55C211.396 261.809 202.824 255.894 202.824 255.894C202.824 255.894 199.675 264.407 193.236 261.87C186.353 259.158 191.303 234.416 205.19 220.418C221.256 204.224 244.983 218.332 244.983 218.332" fill="white"/>
<g opacity="0.35">
<path d="M266.44 240.386C266.422 245.542 264.631 250.468 259.929 254.471C243.803 268.209 226.527 249.822 226.527 249.822C226.527 249.822 224.584 255.895 218.664 258.552C211.396 261.81 202.825 255.895 202.825 255.895C202.825 255.895 199.677 264.408 193.237 261.869C190.304 260.712 189.52 255.565 190.662 248.95C190.747 253.568 191.867 256.763 194.083 257.219C200.272 258.493 199.09 247.106 199.09 247.106C199.09 247.106 203.702 257.937 214.024 254.431C224.136 250.988 226.527 240.441 226.527 240.441C226.527 240.441 246.974 258.493 260.807 247.892C263.614 245.737 265.419 243.184 266.44 240.386Z" fill="#371A45"/>
</g>
<path d="M250.245 206.133C251.853 207.307 253.266 208.648 254.606 210.071C255.95 211.489 257.188 213.003 258.351 214.578C260.653 217.742 262.711 221.117 264.353 224.735C264.785 225.626 265.132 226.566 265.52 227.481C265.851 228.427 266.23 229.348 266.507 230.318C267.145 232.219 267.594 234.206 267.908 236.221C268.222 238.241 268.285 240.326 268.13 242.41C267.942 244.501 267.402 246.572 266.597 248.538C266.12 249.486 265.693 250.465 265.07 251.324L264.634 251.987L264.415 252.318L264.164 252.621L263.152 253.828C262.831 254.25 262.418 254.567 262.052 254.938C261.671 255.288 261.307 255.669 260.909 255.992L259.703 256.943C259.306 257.265 258.857 257.528 258.435 257.821C256.712 258.947 254.829 259.876 252.83 260.492C250.831 261.103 248.732 261.39 246.654 261.366C242.479 261.321 238.474 260.05 234.916 258.198C233.13 257.269 231.431 256.201 229.823 255.017C229.018 254.426 228.238 253.803 227.475 253.155C226.704 252.494 225.994 251.855 225.229 251.067L228.233 250.38C228.093 250.792 227.977 251.068 227.837 251.392C227.7 251.703 227.559 252.006 227.406 252.303C227.108 252.901 226.767 253.472 226.409 254.032C225.687 255.148 224.841 256.193 223.874 257.128C222.908 258.062 221.824 258.889 220.645 259.565C220.037 259.871 219.458 260.21 218.786 260.429L217.804 260.787L216.793 261.021C214.074 261.623 211.353 261.273 208.857 260.599C207.612 260.236 206.399 259.797 205.235 259.264C204.655 258.994 204.08 258.712 203.517 258.406C202.942 258.087 202.423 257.796 201.813 257.386L204.502 256.527C204.248 257.178 204.009 257.661 203.722 258.203C203.44 258.728 203.131 259.24 202.788 259.738C202.1 260.729 201.287 261.682 200.248 262.481C199.217 263.274 197.922 263.912 196.511 264.083C195.813 264.18 195.102 264.165 194.429 264.054C193.739 263.953 193.132 263.767 192.488 263.508C191.744 263.176 191.06 262.689 190.574 262.111L190.209 261.676C190.093 261.529 190.014 261.376 189.916 261.224L189.642 260.766C189.56 260.613 189.501 260.46 189.43 260.306C188.891 259.074 188.623 257.852 188.501 256.674C188.239 254.308 188.41 252.043 188.71 249.822C189.348 245.39 190.644 241.157 192.315 237.094C194.004 233.04 196.075 229.141 198.615 225.54C199.882 223.738 201.257 222.007 202.751 220.373C204.217 218.742 205.946 217.195 207.782 215.885C211.466 213.212 215.894 211.633 220.343 211.081C222.575 210.799 224.818 210.787 227.036 210.918C229.252 211.081 231.459 211.348 233.609 211.861C235.758 212.372 237.848 213.098 239.83 214.05C241.801 215.031 243.68 216.182 245.286 217.813C245.526 218.056 245.525 218.45 245.284 218.692C245.13 218.847 244.916 218.902 244.718 218.859L244.68 218.851C240.51 217.907 236.669 216.578 232.718 215.638C230.751 215.161 228.768 214.731 226.762 214.572C224.76 214.382 222.75 214.426 220.78 214.668C216.847 215.164 213.041 216.52 209.836 218.846C206.628 221.108 203.915 224.287 201.539 227.628C199.167 230.989 197.212 234.668 195.622 238.485C194.048 242.305 192.833 246.305 192.256 250.334C191.982 252.339 191.846 254.373 192.059 256.257C192.15 257.201 192.375 258.087 192.69 258.807C193.014 259.534 193.431 259.984 193.86 260.169C195.361 260.781 196.782 260.619 198.079 259.605C198.727 259.109 199.323 258.432 199.845 257.676C200.107 257.297 200.349 256.895 200.572 256.481C200.787 256.083 201.013 255.605 201.146 255.262L201.15 255.251C201.514 254.314 202.561 253.853 203.489 254.22C203.61 254.267 203.731 254.333 203.835 254.402C204.219 254.662 204.743 254.963 205.216 255.224C205.706 255.489 206.207 255.734 206.711 255.97C207.725 256.434 208.768 256.808 209.818 257.116C211.917 257.683 214.087 257.934 216.06 257.483L216.798 257.318L217.5 257.055C217.973 256.914 218.432 256.637 218.894 256.412C219.794 255.893 220.63 255.257 221.39 254.524C222.149 253.791 222.827 252.956 223.411 252.053C223.7 251.6 223.979 251.137 224.216 250.657C224.34 250.419 224.452 250.176 224.558 249.936C224.66 249.708 224.77 249.425 224.825 249.268L224.83 249.253C225.161 248.302 226.193 247.801 227.136 248.135C227.404 248.23 227.642 248.389 227.829 248.58C228.398 249.166 229.106 249.814 229.789 250.395C230.484 250.985 231.198 251.557 231.934 252.096C233.404 253.179 234.95 254.148 236.551 254.981C239.747 256.648 243.224 257.717 246.692 257.752C248.423 257.77 250.144 257.535 251.794 257.031C253.444 256.522 255.015 255.748 256.487 254.788C256.848 254.534 257.231 254.317 257.575 254.035L258.621 253.21C258.966 252.932 259.26 252.613 259.584 252.317C259.888 252.006 260.249 251.742 260.505 251.392L261.339 250.398L261.548 250.15L261.723 249.879L262.076 249.34C262.591 248.646 262.919 247.849 263.315 247.089C263.956 245.499 264.405 243.823 264.563 242.078C264.682 240.331 264.656 238.548 264.355 236.769C263.778 233.211 262.523 229.709 260.889 226.385C259.282 223.044 257.398 219.808 255.395 216.629C253.397 213.446 251.318 210.282 249.373 206.956L249.364 206.942C249.194 206.65 249.29 206.274 249.579 206.101C249.794 205.974 250.055 205.994 250.245 206.133Z" fill="#371A45"/>
<path d="M199.255 246.083C199.878 247.814 200.535 249.445 201.318 250.898C201.702 251.63 202.163 252.279 202.574 252.919C202.995 253.561 203.46 254.105 203.87 254.745L203.977 254.914C204.442 255.641 204.234 256.611 203.514 257.079C202.966 257.435 202.28 257.399 201.778 257.043C200.912 256.428 200.216 255.593 199.715 254.69C199.215 253.785 198.893 252.809 198.692 251.84C198.491 250.869 198.404 249.894 198.415 248.931C198.44 247.966 198.539 247.018 198.813 246.083C198.849 245.96 198.977 245.89 199.099 245.926C199.171 245.947 199.225 246.002 199.249 246.068L199.255 246.083Z" fill="#371A45"/>
<path d="M227.119 239.975C227.571 240.733 227.899 241.566 228.141 242.415C228.367 243.266 228.535 244.14 228.612 245.014C228.689 245.887 228.731 246.769 228.64 247.635C228.547 248.511 228.402 249.338 228.027 250.211C227.683 251.01 226.763 251.377 225.971 251.03C225.378 250.77 225.025 250.184 225.03 249.57L225.032 249.436C225.038 248.708 225.18 247.912 225.32 247.158C225.458 246.393 225.66 245.635 225.828 244.864C226.003 244.092 226.155 243.317 226.302 242.523C226.455 241.728 226.557 240.926 226.688 240.07L226.689 240.06C226.709 239.932 226.827 239.844 226.955 239.863C227.025 239.874 227.084 239.917 227.119 239.975Z" fill="#371A45"/>
<path d="M252.559 260.244C252.29 260.244 252.018 260.173 251.77 260.024C251.036 259.583 250.795 258.626 251.232 257.886C260.833 241.601 236.981 216.473 236.739 216.221C236.145 215.603 236.159 214.615 236.772 214.016C237.385 213.416 238.364 213.431 238.958 214.048C240.014 215.146 264.697 241.149 253.889 259.481C253.6 259.971 253.086 260.244 252.559 260.244Z" fill="#371A45"/>
</g>
</g>
<defs>
<filter id="filter0_d_86_236" x="18.599" y="77.6767" width="329.66" height="226.064" filterUnits="userSpaceOnUse" color-interpolation-filters="sRGB">
<feFlood flood-opacity="0" result="BackgroundImageFix"/>
<feColorMatrix in="SourceAlpha" type="matrix" values="0 0 0 0 0 0 0 0 0 0 0 0 0 0 0 0 0 0 127 0" result="hardAlpha"/>
<feOffset dx="6" dy="7"/>
<feGaussianBlur stdDeviation="5.5"/>
<feComposite in2="hardAlpha" operator="out"/>
<feColorMatrix type="matrix" values="0 0 0 0 0 0 0 0 0 0 0 0 0 0 0 0 0 0 0.18 0"/>
<feBlend mode="normal" in2="BackgroundImageFix" result="effect1_dropShadow_86_236"/>
<feBlend mode="normal" in="SourceGraphic" in2="effect1_dropShadow_86_236" result="shape"/>
</filter>
<clipPath id="clip0_86_236">
<rect width="376" height="322" fill="white"/>
</clipPath>
</defs>
</svg>
